<svg width="33" height="33" viewBox="0 0 33 33" fill="none" xmlns="http://www.w3.org/2000/svg">
<path fill-rule="evenodd" clip-rule="evenodd" d="M8 2.7998H12.5C13.8261 2.7998 15.0979 3.32659 16.0355 4.26427C16.9732 5.20195 17.5 6.47372 17.5 7.7998V10.2998C17.5 11.6811 18.62 12.7998 20 12.7998H22.5C23.8261 12.7998 25.0979 13.3266 26.0355 14.2643C26.9732 15.202 27.5 16.4737 27.5 17.7998V28.2998C27.5 29.6798 26.38 30.7998 25 30.7998H8C7.33696 30.7998 6.70107 30.5364 6.23223 30.0676C5.76339 29.5987 5.5 28.9628 5.5 28.2998V5.2998C5.5 3.91847 6.62 2.7998 8 2.7998ZM13.5 23.7998C13.5 23.5346 13.3946 23.2802 13.2071 23.0927C13.0196 22.9052 12.7652 22.7998 12.5 22.7998C12.2348 22.7998 11.9804 22.9052 11.7929 23.0927C11.6054 23.2802 11.5 23.5346 11.5 23.7998V24.7998C11.5 25.065 11.6054 25.3194 11.7929 25.5069C11.9804 25.6944 12.2348 25.7998 12.5 25.7998C12.7652 25.7998 13.0196 25.6944 13.2071 25.5069C13.3946 25.3194 13.5 25.065 13.5 24.7998V23.7998ZM16.5 19.7998C16.7652 19.7998 17.0196 19.9052 17.2071 20.0927C17.3946 20.2802 17.5 20.5346 17.5 20.7998V24.7998C17.5 25.065 17.3946 25.3194 17.2071 25.5069C17.0196 25.6944 16.7652 25.7998 16.5 25.7998C16.2348 25.7998 15.9804 25.6944 15.7929 25.5069C15.6054 25.3194 15.5 25.065 15.5 24.7998V20.7998C15.5 20.5346 15.6054 20.2802 15.7929 20.0927C15.9804 19.9052 16.2348 19.7998 16.5 19.7998ZM21.5 17.7998C21.5 17.5346 21.3946 17.2802 21.2071 17.0927C21.0196 16.9052 20.7652 16.7998 20.5 16.7998C20.2348 16.7998 19.9804 16.9052 19.7929 17.0927C19.6054 17.2802 19.5 17.5346 19.5 17.7998V24.7998C19.5 25.065 19.6054 25.3194 19.7929 25.5069C19.9804 25.6944 20.2348 25.7998 20.5 25.7998C20.7652 25.7998 21.0196 25.6944 21.2071 25.5069C21.3946 25.3194 21.5 25.065 21.5 24.7998V17.7998Z" fill="#F2B846"/>
<path d="M19.4998 7.79937C19.5021 6.11743 18.8965 4.49132 17.7944 3.2207C20.0255 3.80732 22.0607 4.976 23.6919 6.60722C25.3231 8.23844 26.4918 10.2736 27.0784 12.5047C25.8078 11.4027 24.1817 10.797 22.4998 10.7994H19.9998C19.8672 10.7994 19.74 10.7467 19.6462 10.6529C19.5524 10.5592 19.4998 10.432 19.4998 10.2994V7.79937Z" fill="#F2B846"/>
</svg>
