<svg width="33" height="33" viewBox="0 0 33 33" fill="none" xmlns="http://www.w3.org/2000/svg">
<path fill-rule="evenodd" clip-rule="evenodd" d="M17.784 3.84824C17.7036 3.74056 17.6024 3.65017 17.4863 3.58248C17.3703 3.51479 17.2418 3.47118 17.1085 3.45426C16.9752 3.43733 16.8399 3.44744 16.7106 3.48397C16.5813 3.52051 16.4607 3.58272 16.356 3.6669C13.8007 5.71833 12.1152 8.65975 11.6373 11.9016C10.7615 11.2665 9.9939 10.4944 9.36397 9.6149C9.27841 9.49531 9.16753 9.39605 9.03922 9.32421C8.91091 9.25236 8.76834 9.2097 8.62166 9.19926C8.47498 9.18882 8.32781 9.21086 8.19062 9.2638C8.05343 9.31675 7.9296 9.3993 7.82797 9.50557C6.06706 11.3476 4.9383 13.7025 4.60518 16.229C4.27206 18.7554 4.75189 21.3224 5.97516 23.5579C7.19843 25.7934 9.10162 27.5815 11.409 28.6631C13.7165 29.7447 16.3083 30.0637 18.8091 29.5738C21.3099 29.0839 23.5898 27.8106 25.3186 25.9383C27.0474 24.066 28.1352 21.692 28.4246 19.1602C28.714 16.6283 28.1898 14.0701 26.928 11.856C25.6663 9.64196 23.7324 7.88708 21.4066 6.84557C19.9769 6.15033 18.7346 5.1225 17.784 3.84824ZM21.5 19.8002C21.4995 20.5235 21.3421 21.238 21.0386 21.8945C20.7352 22.551 20.293 23.1339 19.7424 23.6029C19.1919 24.0719 18.5461 24.4159 17.8497 24.6112C17.1533 24.8064 16.4229 24.8482 15.7088 24.7338C14.9946 24.6193 14.3138 24.3513 13.7133 23.9482C13.1128 23.5452 12.6069 23.0166 12.2305 22.399C11.8541 21.7815 11.6161 21.0896 11.5331 20.3711C11.45 19.6527 11.5238 18.9247 11.7493 18.2376C12.5866 18.8576 13.5493 19.3176 14.5933 19.5709C14.8764 17.7455 15.7834 16.0747 17.16 14.8429C18.3613 15.0029 19.4637 15.5938 20.262 16.5056C21.0603 17.4175 21.5002 18.5883 21.5 19.8002Z" fill="#F3497F"/>
</svg>
