<svg width="51" height="51" viewBox="0 0 51 51" fill="none" xmlns="http://www.w3.org/2000/svg">
<path d="M42.9802 34.82C41.5314 36.2688 39.1822 36.2688 37.7334 34.82L31.3371 28.4234C29.8881 26.9747 29.8881 24.6257 31.3371 23.1768L37.7334 16.7804C39.1822 15.3316 41.5314 15.3316 42.9802 16.7804L49.3767 23.1768C50.8255 24.6257 50.8255 26.9747 49.3767 28.4234L42.9802 34.82ZM13.2665 34.82C11.8177 36.2688 9.46859 36.2688 8.01975 34.82L1.62335 28.4234C0.174503 26.9747 0.1745 24.6257 1.62335 23.1768L8.01975 16.7804C9.46859 15.3316 11.8177 15.3316 13.2665 16.7804L19.6629 23.1768C21.1117 24.6257 21.1117 26.9747 19.6629 28.4234L13.2665 34.82ZM28.1235 49.6767C26.6745 51.1257 24.3255 51.1257 22.8766 49.6767L16.4802 43.2804C15.0314 41.8316 15.0314 39.4824 16.4802 38.0337L22.8766 31.6374C24.3255 30.1883 26.6745 30.1883 28.1235 31.6374L34.5198 38.0337C35.9685 39.4824 35.9685 41.8316 34.5198 43.2804L28.1235 49.6767ZM28.1235 19.9631C26.6745 21.4119 24.3255 21.412 22.8766 19.9631L16.4802 13.5667C15.0314 12.1178 15.0314 9.76881 16.4802 8.31994L22.8766 1.92355C24.3255 0.474704 26.6745 0.474701 28.1235 1.92355L34.5198 8.31994C35.9685 9.76881 35.9685 12.1178 34.5198 13.5667L28.1235 19.9631Z" fill="#F3497F"/>
</svg>
