<svg width="33" height="33" viewBox="0 0 33 33" fill="none" xmlns="http://www.w3.org/2000/svg">
<path d="M15.692 2.91964C15.8379 2.84098 16.001 2.7998 16.1667 2.7998C16.3324 2.7998 16.4955 2.84098 16.6414 2.91964L29.6413 9.91964C29.8001 10.0053 29.9327 10.1324 30.0251 10.2873C30.1176 10.4422 30.1664 10.6192 30.1664 10.7996C30.1664 10.98 30.1176 11.1571 30.0251 11.312C29.9327 11.4669 29.8001 11.594 29.6413 11.6796L16.6414 18.6796C16.4955 18.7583 16.3324 18.7995 16.1667 18.7995C16.001 18.7995 15.8379 18.7583 15.692 18.6796L2.69202 11.6796C2.53327 11.594 2.40065 11.4669 2.30822 11.312C2.21579 11.1571 2.16699 10.98 2.16699 10.7996C2.16699 10.6192 2.21579 10.4422 2.30822 10.2873C2.40065 10.1324 2.53327 10.0053 2.69202 9.91964L15.692 2.91964Z" fill="#C3DD4E"/>
<path d="M4.52003 14.9359L14.744 20.4412C15.1812 20.6767 15.6701 20.8 16.1667 20.8C16.6633 20.8 17.1521 20.6767 17.5894 20.4412L27.8134 14.9346L29.64 15.9199C29.7988 16.0056 29.9314 16.1326 30.0238 16.2875C30.1163 16.4425 30.1651 16.6195 30.1651 16.7999C30.1651 16.9803 30.1163 17.1573 30.0238 17.3123C29.9314 17.4672 29.7988 17.5942 29.64 17.6799L16.64 24.6799C16.4945 24.7581 16.3319 24.799 16.1667 24.799C16.0015 24.799 15.8389 24.7581 15.6934 24.6799L2.69336 17.6799C2.53461 17.5942 2.40199 17.4672 2.30956 17.3123C2.21714 17.1573 2.16833 16.9803 2.16833 16.7999C2.16833 16.6195 2.21714 16.4425 2.30956 16.2875C2.40199 16.1326 2.53461 16.0056 2.69336 15.9199L4.52003 14.9359Z" fill="#C3DD4E"/>
<path d="M14.744 26.4412L4.52003 20.9346L2.69336 21.9199C2.53461 22.0056 2.40199 22.1326 2.30956 22.2875C2.21714 22.4425 2.16833 22.6195 2.16833 22.7999C2.16833 22.9803 2.21714 23.1573 2.30956 23.3123C2.40199 23.4672 2.53461 23.5942 2.69336 23.6799L15.6934 30.6799C15.988 30.8399 16.3454 30.8399 16.64 30.6799L29.64 23.6799C29.7988 23.5942 29.9314 23.4672 30.0238 23.3123C30.1163 23.1573 30.1651 22.9803 30.1651 22.7999C30.1651 22.6195 30.1163 22.4425 30.0238 22.2875C29.9314 22.1326 29.7988 22.0056 29.64 21.9199L27.8134 20.9359L17.5894 26.4426C17.152 26.6779 16.6631 26.8009 16.1665 26.8007C15.6699 26.8005 15.1811 26.6769 14.744 26.4412Z" fill="#C3DD4E"/>
</svg>
