<svg width="137" height="138" viewBox="0 0 137 138" fill="none" xmlns="http://www.w3.org/2000/svg">
<mask id="mask0_29_220" style="mask-type:luminance" maskUnits="userSpaceOnUse" x="0" y="0" width="137" height="138">
<path d="M137 0.299805H0V137.3H137V0.299805Z" fill="white"/>
</mask>
<g mask="url(#mask0_29_220)">
<path fill-rule="evenodd" clip-rule="evenodd" d="M68.5 137.3C106.331 137.3 137 106.631 137 68.7998C137 30.9683 106.331 0.299805 68.5 0.299805C30.6685 0.299805 0 30.9683 0 68.7998C0 106.631 30.6685 137.3 68.5 137.3ZM68.5 98.7686C85.051 98.7686 98.4688 85.3508 98.4688 68.7998C98.4688 52.2485 85.051 38.8311 68.5 38.8311C51.9487 38.8311 38.5312 52.2485 38.5312 68.7998C38.5312 85.3508 51.9487 98.7686 68.5 98.7686Z" fill="#C3DD4E"/>
</g>
</svg>
