<svg width="33" height="33" viewBox="0 0 33 33" fill="none" xmlns="http://www.w3.org/2000/svg">
<path fill-rule="evenodd" clip-rule="evenodd" d="M17.5214 3.69323C17.3356 3.51712 17.0894 3.41895 16.8334 3.41895C16.5774 3.41895 16.3312 3.51712 16.1454 3.69323C13.3151 6.38108 9.54555 7.855 5.64272 7.7999C5.4301 7.79714 5.22213 7.86222 5.04902 7.9857C4.8759 8.10918 4.74666 8.28463 4.68005 8.48657C4.11735 10.2015 3.83154 11.9951 3.83338 13.7999C3.83338 21.7226 9.25205 28.3772 16.584 30.2639C16.7476 30.3061 16.9192 30.3061 17.0827 30.2639C24.4147 28.3772 29.8334 21.7226 29.8334 13.7999C29.8334 11.9466 29.536 10.1599 28.9867 8.48657C28.9203 8.28438 28.7912 8.10864 28.6181 7.98491C28.4449 7.86117 28.2368 7.7959 28.024 7.79857L27.8334 7.7999C23.8387 7.7999 20.2107 6.2399 17.5214 3.69323ZM21.6467 14.3812C21.7267 14.2746 21.7846 14.1531 21.817 14.0238C21.8493 13.8945 21.8555 13.7601 21.8352 13.6284C21.8148 13.4967 21.7684 13.3703 21.6985 13.2568C21.6287 13.1433 21.5368 13.0449 21.4284 12.9674C21.32 12.8899 21.1971 12.8349 21.0671 12.8055C20.9371 12.7762 20.8026 12.7731 20.6714 12.7965C20.5401 12.8199 20.4149 12.8693 20.3031 12.9418C20.1912 13.0143 20.095 13.1084 20.0201 13.2186L15.7054 19.2586L13.54 17.0932C13.3505 16.9166 13.0998 16.8204 12.8407 16.825C12.5816 16.8296 12.3344 16.9345 12.1512 17.1177C11.968 17.301 11.8631 17.5481 11.8585 17.8072C11.8539 18.0663 11.9501 18.317 12.1267 18.5066L15.1267 21.5066C15.2294 21.6091 15.3531 21.6881 15.4894 21.7381C15.6256 21.788 15.7711 21.8077 15.9157 21.7958C16.0604 21.7839 16.2007 21.7406 16.3269 21.669C16.4531 21.5974 16.5623 21.4992 16.6467 21.3812L21.6467 14.3812Z" fill="#0065FB"/>
</svg>
