<svg width="30" height="31" viewBox="0 0 30 31" fill="none" xmlns="http://www.w3.org/2000/svg">
<g id="Frame">
<path id="Vector" fill-rule="evenodd" clip-rule="evenodd" d="M11.6437 9.5801C15.2437 4.95385 20.8687 1.9751 27.1875 1.9751C27.4361 1.9751 27.6746 2.07387 27.8504 2.24969C28.0262 2.4255 28.125 2.66396 28.125 2.9126C28.125 9.2326 25.1462 14.8563 20.52 18.4576C20.7124 19.6629 20.641 20.8956 20.3107 22.0706C19.9805 23.2456 19.3992 24.335 18.6071 25.2636C17.8149 26.1922 16.8307 26.9379 15.7224 27.4491C14.6141 27.9604 13.4081 28.2252 12.1875 28.2251C11.9389 28.2251 11.7004 28.1263 11.5246 27.9505C11.3488 27.7747 11.25 27.5362 11.25 27.2876V22.1238C10.0349 21.1643 8.93657 20.0656 7.9775 18.8501H2.8125C2.56386 18.8501 2.3254 18.7513 2.14959 18.5755C1.97377 18.3997 1.875 18.1612 1.875 17.9126C1.8749 16.6919 2.13967 15.4857 2.65103 14.3773C3.16239 13.2689 3.90817 12.2847 4.83689 11.4925C5.76561 10.7003 6.85516 10.1191 8.03034 9.78891C9.20553 9.45875 10.4384 9.3875 11.6437 9.5801ZM18.75 8.5376C18.0041 8.5376 17.2887 8.83391 16.7613 9.36136C16.2338 9.88881 15.9375 10.6042 15.9375 11.3501C15.9375 12.096 16.2338 12.8114 16.7613 13.3388C17.2887 13.8663 18.0041 14.1626 18.75 14.1626C19.4959 14.1626 20.2113 13.8663 20.7387 13.3388C21.2662 12.8114 21.5625 12.096 21.5625 11.3501C21.5625 10.6042 21.2662 9.88881 20.7387 9.36136C20.2113 8.83391 19.4959 8.5376 18.75 8.5376Z" fill="#F2B846"/>
<path id="Vector_2" d="M6.575 21.6526C6.67374 21.579 6.75701 21.4867 6.82006 21.3809C6.8831 21.2751 6.92469 21.1579 6.94245 21.036C6.96021 20.9141 6.95379 20.7899 6.92356 20.6705C6.89333 20.5512 6.83987 20.4389 6.76625 20.3401C6.69263 20.2414 6.60028 20.1581 6.49447 20.0951C6.38867 20.032 6.27149 19.9905 6.14961 19.9727C6.02773 19.9549 5.90355 19.9614 5.78415 19.9916C5.66476 20.0218 5.55249 20.0753 5.45375 20.1489C4.49486 20.8622 3.74926 21.8241 3.2976 22.9305C2.84595 24.037 2.70543 25.2458 2.89125 26.4264C2.92147 26.623 3.01345 26.8049 3.1539 26.9458C3.29434 27.0867 3.47597 27.1793 3.6725 27.2101C4.85317 27.3958 6.06213 27.2551 7.16859 26.8032C8.27505 26.3514 9.23687 25.6055 9.95 24.6464C10.026 24.5479 10.0816 24.4353 10.1137 24.3151C10.1457 24.1949 10.1535 24.0696 10.1366 23.9463C10.1197 23.8231 10.0785 23.7044 10.0153 23.5973C9.95208 23.4902 9.86819 23.3967 9.7685 23.3223C9.66882 23.2479 9.55532 23.1941 9.43462 23.164C9.31393 23.1339 9.18846 23.1281 9.06551 23.147C8.94256 23.1659 8.8246 23.209 8.7185 23.274C8.6124 23.3389 8.52027 23.4243 8.4475 23.5251C8.01158 24.1114 7.44447 24.5875 6.79155 24.9152C6.13864 25.243 5.41806 25.4133 4.6875 25.4126C4.6875 23.8751 5.4275 22.5089 6.575 21.6526Z" fill="#F2B846"/>
</g>
</svg>
