<svg width="34" height="34" viewBox="0 0 34 34" fill="none" xmlns="http://www.w3.org/2000/svg">
<g clip-path="url(#clip0_29_460)">
<mask id="mask0_29_460" style="mask-type:luminance" maskUnits="userSpaceOnUse" x="0" y="0" width="34" height="34">
<path d="M34 0H0V34H34V0Z" fill="white"/>
</mask>
<g mask="url(#mask0_29_460)">
<path d="M15.2884 1.04187C16.0067 -0.347289 17.9933 -0.347289 18.7116 1.04187L23.2854 9.88795C23.4687 10.2424 23.7575 10.5313 24.1121 10.7146L32.9581 15.2884C34.3473 16.0067 34.3473 17.9933 32.9581 18.7116L24.1121 23.2854C23.7575 23.4687 23.4687 23.7575 23.2854 24.1121L18.7116 32.9581C17.9933 34.3473 16.0067 34.3473 15.2884 32.9581L10.7146 24.1121C10.5313 23.7575 10.2424 23.4687 9.88795 23.2854L1.04187 18.7116C-0.347289 17.9933 -0.347289 16.0067 1.04187 15.2884L9.88795 10.7146C10.2424 10.5313 10.5313 10.2424 10.7146 9.88795L15.2884 1.04187Z" fill="#F2B846"/>
</g>
</g>
<defs>
<clipPath id="clip0_29_460">
<rect width="34" height="34" fill="white"/>
</clipPath>
</defs>
</svg>
