<svg width="120" height="73" viewBox="0 0 120 73" fill="none" xmlns="http://www.w3.org/2000/svg">
<path fill-rule="evenodd" clip-rule="evenodd" d="M103.941 0.177086C108.645 2.28909 113.317 4.33709 117.957 6.58509C118.957 7.06509 119.373 8.25696 118.893 9.24896C118.413 10.249 117.213 10.6651 116.221 10.1851C111.605 7.95309 106.973 5.92113 102.301 3.82513C101.293 3.36913 100.845 2.18509 101.293 1.18509C101.749 0.177094 102.933 -0.278914 103.941 0.177086Z" fill="#C3DD4E"/>
<path fill-rule="evenodd" clip-rule="evenodd" d="M69.3813 25.1609C76.2133 39.9529 82.2935 55.0809 88.8055 70.0089C89.2455 71.0249 88.7814 72.201 87.7734 72.641C86.7574 73.081 85.5816 72.6249 85.1336 71.6089C78.6376 56.7049 72.5736 41.601 65.7496 26.841C65.2856 25.833 65.7254 24.6489 66.7254 24.1849C67.7334 23.7209 68.9173 24.1609 69.3813 25.1609Z" fill="#C3DD4E"/>
<path fill-rule="evenodd" clip-rule="evenodd" d="M10.7651 29.0016C8.58114 42.6016 6.01316 56.1615 3.98116 69.7855C3.81316 70.8735 2.79728 71.6254 1.70928 71.4654C0.613282 71.3054 -0.138609 70.2816 0.0213909 69.1936C2.06139 55.5536 4.62939 41.9775 6.82139 28.3615C6.99739 27.2735 8.02128 26.5295 9.10928 26.7055C10.2053 26.8815 10.9411 27.9056 10.7651 29.0016Z" fill="#C3DD4E"/>
</svg>
