<svg width="94" height="95" viewBox="0 0 94 95" fill="none" xmlns="http://www.w3.org/2000/svg">
<g clip-path="url(#clip0_29_240)">
<path fill-rule="evenodd" clip-rule="evenodd" d="M30.2185 39.3362C30.1647 38.9843 30.1095 38.6313 30.0516 38.2786C29.459 34.687 28.8845 31.1053 28.5465 27.4765C28.4644 26.5976 28.3348 24.9144 27.8321 23.7215C27.4725 22.8684 26.9276 22.2159 26.2641 21.8397C25.8416 21.5999 25.1322 21.3719 24.2951 21.8993C24.1543 21.988 23.9376 22.1593 23.711 22.4151C23.345 22.8292 22.7873 23.6463 22.7165 23.7641C21.6777 25.4765 20.6913 27.1188 19.7956 28.9116C18.9712 30.5614 18.055 32.1597 17.2523 33.8223C16.0514 36.3096 15.0334 38.8073 14.2824 41.4702C14.0033 42.4588 14.5802 43.4875 15.5688 43.7666C16.5566 44.0451 17.5855 43.4696 17.8646 42.481C18.5567 40.0287 19.4977 37.7314 20.6046 35.441C21.3994 33.7935 22.3084 32.2095 23.125 30.5748C23.6566 29.5115 24.2228 28.5044 24.8131 27.5025L24.8402 27.8216C25.1868 31.5383 25.7724 35.2061 26.3793 38.8841C26.6059 40.2609 26.7882 41.6393 27.0369 43.0129C27.0307 43.1594 27.0042 43.8325 27.0408 44.0972C27.1013 44.5378 27.2656 44.8819 27.4485 45.1282C27.9126 45.755 28.5692 46.1435 29.6016 45.8705C30.3746 45.666 31.1863 45.059 31.8655 44.1168C32.7994 42.8224 33.5762 40.7754 34.0549 39.9224C37.0828 34.5249 39.6941 28.8454 43.1247 23.6833C43.6934 22.8281 43.4606 21.6722 42.6053 21.1035C41.7495 20.5355 40.5929 20.7677 40.0249 21.6235C36.5423 26.8629 33.8819 32.6219 30.8079 38.1012C30.645 38.3931 30.447 38.8342 30.2185 39.3362Z" fill="#F3497F"/>
<path fill-rule="evenodd" clip-rule="evenodd" d="M58.482 28.7346C56.4576 27.9167 54.4733 27.0392 52.2471 27.1828C49.9176 27.3338 47.8741 28.5574 46.1441 30.3309C43.9372 32.5936 42.2445 35.7683 40.9977 38.0003C40.3524 39.1564 39.3163 40.665 38.6509 42.1908C38.0792 43.5032 37.78 44.8383 37.9404 46.0503C38.1928 47.9545 39.7599 49.3019 41.966 49.8851C44.5147 50.5587 47.8308 50.1911 49.1582 49.5229C50.0759 49.0617 50.4465 47.9417 49.9839 47.0242C49.5227 46.1065 48.4035 45.7365 47.4858 46.1977C46.6438 46.6215 44.5339 46.7139 42.9166 46.287C42.5559 46.1911 42.2193 46.0692 41.9445 45.8958C41.8014 45.806 41.6521 45.7244 41.6302 45.5627C41.5255 44.7667 41.9272 43.9015 42.3622 43.0495C42.9676 41.8612 43.74 40.7248 44.2484 39.8151C45.3628 37.8187 46.8353 34.9534 48.8086 32.9296C49.8669 31.8447 51.0619 30.9901 52.4878 30.898C54.1423 30.7912 55.5811 31.5773 57.0868 32.1858C58.0388 32.5711 59.1247 32.1104 59.5093 31.1579C59.8947 30.2059 59.4339 29.12 58.482 28.7346Z" fill="#F3497F"/>
<path fill-rule="evenodd" clip-rule="evenodd" d="M52.4872 36.4977C50.6448 36.23 48.6972 35.9148 46.9177 35.3675C45.9358 35.0656 44.8935 35.6172 44.5907 36.5985C44.2888 37.5804 44.8403 38.6227 45.8222 38.9246C47.7819 39.5278 49.9232 39.887 51.951 40.1819C52.9673 40.3294 53.9131 39.6242 54.0606 38.6079C54.2087 37.5909 53.5036 36.6464 52.4872 36.4977Z" fill="#F3497F"/>
<path fill-rule="evenodd" clip-rule="evenodd" d="M69.8827 50.7656C69.7809 48.6358 69.6015 46.4805 69.2738 44.3884C69.2467 44.2181 68.7779 42.2925 68.3327 41.3705C68.0322 40.7489 67.6319 40.3768 67.3588 40.2106C66.5642 39.7269 65.8114 39.7895 65.1115 40.3372C64.441 40.8627 63.8631 41.5006 63.3386 42.2007C63.7845 39.3103 64.3683 36.4315 65.4318 33.7365C65.5195 33.5139 65.5432 33.3968 65.5483 33.3761C65.6835 32.7658 65.5069 32.3916 65.4484 32.2524C65.1614 31.5676 64.6618 31.2724 64.1412 31.1555C64.0779 31.1407 62.6785 30.8201 62.0373 32.1989C61.9854 32.31 61.6439 33.1228 61.4935 33.4275C61.3634 33.6928 61.3019 33.9734 61.3024 34.2506C60.1201 37.967 59.6036 41.9277 59.0729 45.7754C58.9581 46.6069 58.7584 47.4025 58.4389 48.1782C58.3457 48.4049 58.0439 48.8497 57.9292 49.0928C57.7356 49.5048 57.7025 49.8532 57.7041 50.0451C57.7116 51.0437 58.2595 51.5555 58.9321 51.8048C59.2193 51.9118 59.8095 52.1064 60.6079 51.6383C62.4023 50.5874 63.5987 48.8385 64.6907 46.9916C65.0139 46.4454 65.3237 45.8892 65.6559 45.359C65.9942 47.6683 66.1461 50.0495 66.224 52.3742C66.2327 52.6295 66.443 55.0522 66.626 55.5265C67.0821 56.7148 68.0569 56.8091 68.5255 56.7811C69.2405 56.7378 70.0616 56.3589 70.8093 55.6528C71.7757 54.7386 72.7154 53.188 73.1365 52.5965C75.9713 48.6159 78.892 44.423 80.8742 39.9478C81.2907 39.0086 80.8659 37.9089 79.9267 37.4925C78.9876 37.076 77.8873 37.5016 77.4714 38.44C75.5885 42.6896 72.7951 46.6582 70.1042 50.4374C70.0423 50.5247 69.9679 50.6364 69.8827 50.7656Z" fill="#F3497F"/>
<path fill-rule="evenodd" clip-rule="evenodd" d="M85.7194 42.0318C84.3035 45.0466 82.9063 48.038 81.2483 50.9864C80.7446 51.8822 81.0622 53.0179 81.958 53.5216C82.853 54.0248 83.9888 53.7072 84.4925 52.8114C86.8313 48.6533 88.6633 44.4144 90.7401 40.1403C91.5437 38.4889 90.0207 37.6629 89.9254 37.6148C89.7154 37.5086 88.5436 36.9666 87.6235 38.1249C87.5671 38.1954 87.2328 38.7425 87.0925 38.9468C86.7706 39.4137 86.4296 39.8501 86.0662 40.287C85.6471 40.7905 85.5382 41.4496 85.7194 42.0318Z" fill="#F3497F"/>
<path fill-rule="evenodd" clip-rule="evenodd" d="M78.0412 60.3118C78.5372 59.9648 78.8544 59.3816 78.8349 58.731C78.8034 57.7038 77.9444 56.8963 76.9173 56.9279C75.9689 56.9568 75.4255 57.4508 74.9762 58.2165C74.4564 59.1026 74.7544 60.2444 75.6411 60.7635C76.4511 61.239 77.4754 61.0297 78.0412 60.3118Z" fill="#F3497F"/>
<path fill-rule="evenodd" clip-rule="evenodd" d="M28.3979 67.9759C28.487 67.5404 28.5551 67.1949 28.5668 67.1188C29.1222 63.4942 29.5342 59.8157 29.7258 56.1535C29.7795 55.1274 28.9906 54.2514 27.9645 54.1978C26.9384 54.1441 26.0624 54.9331 26.0087 55.9591C25.8239 59.4974 25.4241 63.0524 24.8878 66.5553C24.847 66.8224 24.2576 69.026 24.2136 70.0966C24.1744 71.066 24.5557 71.7087 24.837 71.9927C25.2839 72.4439 26.2053 72.8529 27.4819 72.4791C29.1483 71.9917 32.4546 69.8307 33.002 69.471C34.0078 68.8084 34.9972 68.0636 35.947 67.3299C37.7482 65.9377 39.3667 64.3597 40.9654 62.7459C41.689 62.016 41.6829 60.837 40.953 60.1134C40.2233 59.391 39.0435 59.3966 38.3212 60.1264C36.838 61.6232 35.3424 63.0932 33.6715 64.3843C32.7947 65.061 31.8825 65.7508 30.9544 66.3624C30.6755 66.5453 29.5459 67.3175 28.3979 67.9759Z" fill="#F3497F"/>
</g>
<defs>
<clipPath id="clip0_29_240">
<rect width="67" height="67" fill="white" transform="translate(40.1749 0.299805) rotate(36.8431)"/>
</clipPath>
</defs>
</svg>
