<svg width="53" height="54" viewBox="0 0 53 54" fill="none" xmlns="http://www.w3.org/2000/svg">
<path d="M43.9802 35.82C42.5314 37.2688 40.1822 37.2688 38.7334 35.82L32.3371 29.4234C30.8881 27.9747 30.8881 25.6257 32.3371 24.1768L38.7334 17.7804C40.1822 16.3316 42.5314 16.3316 43.9802 17.7804L50.3767 24.1768C51.8255 25.6257 51.8255 27.9747 50.3767 29.4234L43.9802 35.82ZM14.2665 35.82C12.8177 37.2688 10.4686 37.2688 9.01975 35.82L2.62335 29.4234C1.1745 27.9747 1.1745 25.6257 2.62335 24.1768L9.01975 17.7804C10.4686 16.3316 12.8177 16.3316 14.2665 17.7804L20.6629 24.1768C22.1117 25.6257 22.1117 27.9747 20.6629 29.4234L14.2665 35.82ZM29.1235 50.6767C27.6745 52.1257 25.3255 52.1257 23.8766 50.6767L17.4802 44.2804C16.0314 42.8316 16.0314 40.4824 17.4802 39.0337L23.8766 32.6374C25.3255 31.1883 27.6745 31.1883 29.1235 32.6374L35.5198 39.0337C36.9685 40.4824 36.9685 42.8316 35.5198 44.2804L29.1235 50.6767ZM29.1235 20.9631C27.6745 22.4119 25.3255 22.412 23.8766 20.9631L17.4802 14.5667C16.0314 13.1178 16.0314 10.7688 17.4802 9.31994L23.8766 2.92355C25.3255 1.4747 27.6745 1.4747 29.1235 2.92355L35.5198 9.31994C36.9685 10.7688 36.9685 13.1178 35.5198 14.5667L29.1235 20.9631Z" fill="#F3497F"/>
</svg>
