<svg width="45" height="46" viewBox="0 0 45 46" fill="none" xmlns="http://www.w3.org/2000/svg">
<g id="Frame" clip-path="url(#clip0_29_49)">
<path id="Vector" fill-rule="evenodd" clip-rule="evenodd" d="M23.0726 11.6228C20.485 11.1215 17.8057 11.6615 15.6164 13.1257C13.4272 14.5898 11.9048 16.8598 11.3799 19.4427C10.855 22.0256 11.3699 24.7129 12.8128 26.921C14.2558 29.129 16.5102 30.6796 19.0866 31.2359C19.3467 31.2892 19.5751 31.4436 19.7217 31.6653C19.8682 31.8869 19.9208 32.1576 19.8679 32.4178C19.8151 32.678 19.661 32.9064 19.4397 33.0527C19.2184 33.199 18.9479 33.2513 18.6878 33.198C16.7531 32.8017 14.9452 31.9343 13.4243 30.6725C11.9035 29.4107 10.7165 27.7935 9.96868 25.9642C9.22084 24.1348 8.93515 22.1498 9.13694 20.1849C9.33873 18.2201 10.0218 16.336 11.1255 14.6996C12.2293 13.0632 13.7197 11.725 15.4648 10.8036C17.2099 9.88213 19.1558 9.40584 21.1301 9.41691C23.1044 9.42798 25.0462 9.92607 26.7835 10.8671C28.5207 11.808 29.9999 13.1629 31.0898 14.8116C31.2363 15.0331 31.2889 15.3038 31.236 15.5639C31.1832 15.824 31.0292 16.0522 30.808 16.1985C30.5867 16.3448 30.3163 16.397 30.0563 16.3438C29.7963 16.2905 29.5679 16.1361 29.4214 15.9145C28.0075 13.7758 25.7801 12.1764 23.0726 11.6228ZM22.2754 15.545C20.7153 15.2255 19.0931 15.539 17.7656 16.4166C16.4382 17.2942 15.5142 18.6639 15.1971 20.2245C14.8799 21.7852 15.1955 23.4088 16.0744 24.7383C16.9533 26.0677 18.3236 26.9941 19.8837 27.3137C20.0162 27.336 20.1429 27.3847 20.2563 27.4571C20.3696 27.5294 20.4673 27.6238 20.5434 27.7347C20.6196 27.8456 20.6726 27.9706 20.6994 28.1024C20.7263 28.2342 20.7263 28.37 20.6995 28.5017C20.6728 28.6334 20.6197 28.7583 20.5436 28.869C20.4676 28.9797 20.3699 29.0738 20.2566 29.1459C20.1433 29.218 20.0166 29.2665 19.8841 29.2884C19.7516 29.3104 19.616 29.3055 19.4853 29.2739C18.1953 29.0099 16.9899 28.4317 15.9758 27.5905C14.9617 26.7493 14.1702 25.6712 13.6715 24.4515C13.1728 23.2319 12.9823 21.9084 13.1168 20.5984C13.2513 19.2883 13.7068 18.0322 14.4427 16.9412C15.1787 15.8502 16.1724 14.958 17.336 14.3437C18.4996 13.7295 19.797 13.412 21.1133 13.4196C22.4296 13.4271 23.7242 13.7594 24.8824 14.387C26.0406 15.0146 27.0266 15.9181 27.7531 17.0175C27.8996 17.2391 27.9522 17.5097 27.8993 17.7698C27.8464 18.0299 27.6924 18.2582 27.4712 18.4044C27.25 18.5507 26.9796 18.6029 26.7196 18.5497C26.4596 18.4964 26.2312 18.342 26.0847 18.1205C25.2356 16.8361 23.8993 15.8786 22.2754 15.545ZM19.2012 19.6809C19.3403 19.5237 19.5253 19.4143 19.7301 19.3683C19.9349 19.3222 20.1491 19.3419 20.3423 19.4243L31.9874 24.3992C32.1696 24.477 32.3247 24.6071 32.4331 24.7731C32.5415 24.939 32.5982 25.1334 32.5962 25.3315C32.5942 25.5296 32.5335 25.7225 32.4218 25.8859C32.3101 26.0493 32.1523 26.1758 31.9686 26.2494L29.3196 27.3123L33.3539 30.8883C33.5528 31.0647 33.6735 31.3127 33.6897 31.5779C33.7059 31.8431 33.6161 32.1038 33.4401 32.3025C33.2641 32.5012 33.0164 32.6217 32.7513 32.6375C32.4863 32.6533 32.2257 32.5631 32.0269 32.3867L27.9944 28.8111L27.2594 31.5701C27.2086 31.7616 27.1022 31.9337 26.9536 32.0644C26.8049 32.1952 26.6208 32.2789 26.4245 32.3048C26.2282 32.3307 26.0285 32.2977 25.8508 32.2099C25.673 32.1222 25.5253 31.9837 25.4261 31.812L19.085 20.8446C18.9796 20.6627 18.9341 20.4523 18.9548 20.2433C18.9755 20.0342 19.0615 19.8371 19.2005 19.6797L19.2012 19.6809Z" fill="#6A4AF3"/>
</g>
<defs>
<clipPath id="clip0_29_49">
<rect width="32" height="32.0487" fill="white" transform="translate(0 18.5566) rotate(-33.4687)"/>
</clipPath>
</defs>
</svg>
