<svg width="30" height="31" viewBox="0 0 30 31" fill="none" xmlns="http://www.w3.org/2000/svg">
<g id="Frame">
<path id="Vector" d="M15 1.0376C12.7307 1.03709 10.5245 1.78513 8.72354 3.16579C6.92254 4.54645 5.62724 6.48263 5.0384 8.67423C4.44956 10.8658 4.60006 13.1905 5.46658 15.2878C6.3331 17.3852 7.86725 19.1382 9.83125 20.2751C10.6888 20.7726 11.225 21.5351 11.2488 22.3038C11.2553 22.5098 11.3295 22.7078 11.4599 22.8673C11.5902 23.0268 11.7695 23.1389 11.97 23.1863C12.41 23.2901 12.8575 23.3713 13.3125 23.4301C13.7163 23.4813 14.0625 23.1576 14.0625 22.7501V16.9238C13.6675 16.8804 13.2761 16.809 12.8913 16.7101C12.772 16.6794 12.66 16.6255 12.5615 16.5515C12.4631 16.4775 12.3802 16.3849 12.3176 16.2788C12.255 16.1728 12.2138 16.0555 12.1966 15.9335C12.1793 15.8116 12.1862 15.6875 12.2169 15.5682C12.2476 15.449 12.3015 15.3369 12.3755 15.2385C12.4495 15.1401 12.5421 15.0572 12.6481 14.9945C12.7542 14.9319 12.8715 14.8908 12.9934 14.8735C13.1154 14.8562 13.2395 14.8631 13.3588 14.8938C14.4353 15.1713 15.5647 15.1713 16.6413 14.8938C16.7617 14.8591 16.8879 14.8489 17.0124 14.8639C17.1368 14.8788 17.2571 14.9185 17.3659 14.9807C17.4747 15.0429 17.57 15.1263 17.6461 15.2259C17.7221 15.3256 17.7774 15.4395 17.8087 15.5609C17.84 15.6822 17.8466 15.8087 17.8281 15.9327C17.8097 16.0567 17.7665 16.1757 17.7013 16.2827C17.636 16.3898 17.55 16.4826 17.4482 16.5558C17.3464 16.629 17.231 16.681 17.1088 16.7088C16.7239 16.8082 16.3325 16.88 15.9375 16.9238V22.7488C15.9375 23.1576 16.2838 23.4813 16.6875 23.4301C17.1425 23.3713 17.59 23.2901 18.03 23.1863C18.2305 23.1389 18.4098 23.0268 18.5401 22.8673C18.6705 22.7078 18.7447 22.5098 18.7513 22.3038C18.7763 21.5351 19.3113 20.7726 20.1688 20.2751C22.1327 19.1382 23.6669 17.3852 24.5334 15.2878C25.3999 13.1905 25.5504 10.8658 24.9616 8.67423C24.3728 6.48263 23.0775 4.54645 21.2765 3.16579C19.4755 1.78513 17.2693 1.03709 15 1.0376Z" fill="#F3497F"/>
<path id="Vector_2" fill-rule="evenodd" clip-rule="evenodd" d="M11.2662 24.9752C11.2892 24.8542 11.3357 24.7389 11.4033 24.6359C11.4708 24.5329 11.5579 24.4443 11.6597 24.375C11.7615 24.3057 11.876 24.2571 11.9966 24.232C12.1172 24.207 12.2415 24.2059 12.3625 24.229C14.1053 24.5596 15.8947 24.5596 17.6375 24.229C17.7599 24.202 17.8866 24.1999 18.0098 24.2227C18.1331 24.2456 18.2506 24.2929 18.3553 24.362C18.4599 24.431 18.5497 24.5203 18.6192 24.6247C18.6887 24.729 18.7366 24.8463 18.76 24.9695C18.7835 25.0926 18.7819 25.2193 18.7555 25.3419C18.7291 25.4644 18.6784 25.5805 18.6064 25.6831C18.5344 25.7857 18.4425 25.8729 18.3362 25.9394C18.2299 26.0059 18.1113 26.0503 17.9875 26.0702C16.0134 26.4448 13.9865 26.4448 12.0125 26.0702C11.7684 26.0238 11.5527 25.8825 11.4127 25.6771C11.2728 25.4718 11.2201 25.2194 11.2662 24.9752ZM12.1925 28.0302C12.2053 27.9077 12.2421 27.789 12.3007 27.6808C12.3594 27.5725 12.4389 27.4769 12.5345 27.3994C12.6302 27.3218 12.7402 27.2639 12.8582 27.2289C12.9762 27.1938 13.1 27.1824 13.2225 27.1952C14.4043 27.3187 15.5957 27.3187 16.7775 27.1952C17.0248 27.1693 17.2722 27.2428 17.4654 27.3994C17.6586 27.556 17.7816 27.7829 17.8075 28.0302C17.8333 28.2775 17.7599 28.525 17.6033 28.7181C17.4467 28.9113 17.2198 29.0343 16.9725 29.0602C15.6611 29.1975 14.3389 29.1975 13.0275 29.0602C12.905 29.0474 12.7863 29.0106 12.678 28.9519C12.5698 28.8932 12.4742 28.8138 12.3966 28.7182C12.3191 28.6225 12.2612 28.5125 12.2261 28.3945C12.1911 28.2764 12.1797 28.1527 12.1925 28.0302Z" fill="#F3497F"/>
</g>
</svg>
